<?xml version="1.0" encoding="UTF-8"?>
<svg id="Layer_2" xmlns="http://www.w3.org/2000/svg" viewBox="0 0 20 35.15">
  <g id="train--medium">
    <g>
      <path d="M10,25.78c-2.68,0-5.33-.64-7.71-1.87-.72-.37-1.42-.79-2.08-1.26l-.21-.15V3.35l.21-.15c5.83-4.21,13.68-4.27,19.58-.14l.22.15v19.32l-.21.15c-.66.46-1.35.88-2.07,1.25-2.39,1.23-5.03,1.87-7.72,1.87ZM1,21.98c.56.38,1.15.73,1.75,1.04,4.55,2.34,9.96,2.34,14.51,0,.6-.31,1.18-.65,1.74-1.03V3.73C13.55.04,6.39.1,1,3.86v18.12Z"/>
      <path d="M7.01,15.1c-.76-.13-1.51-.32-2.24-.56l-.29-.1L2.7,2.09l.99-.14,1.69,11.74c.6.18,1.2.32,1.81.43l-.18.98Z"/>
      <path d="M10,15.37c-1,0-2-.09-2.99-.27l.18-.98c1.86.34,3.76.34,5.62,0,.61-.11,1.22-.25,1.81-.43l1.69-11.76.99.14-1.78,12.38-.29.1c-.73.24-1.48.42-2.24.56-.99.18-1.99.27-2.99.26Z"/>
      <path d="M6.29,17.84c-.85.02-1.52.73-1.5,1.57.02.82.68,1.47,1.5,1.5.34,0,.68-.13.94-.35.65-.55.73-1.53.18-2.18-.05-.06-.12-.13-.18-.18-.26-.23-.59-.35-.94-.35Z"/>
      <path d="M13.71,17.84c-.34,0-.68.13-.94.35-.65.55-.73,1.53-.18,2.18.05.06.12.13.18.18.26.23.59.35.94.35.85-.02,1.52-.73,1.5-1.57-.02-.82-.68-1.47-1.5-1.5h0Z"/>
      <path d="M17.92,35.15c-.2,0-.37-.11-.46-.29l-2.57-5.67c-.1-.26.02-.55.27-.65.24-.1.52,0,.64.24l2.57,5.67c.11.25,0,.55-.25.66h0c-.07.03-.14.05-.21.05Z"/>
      <path d="M2.08,35.15c-.07,0-.14-.02-.21-.04-.25-.11-.36-.41-.25-.66h0s2.57-5.67,2.57-5.67c.12-.25.42-.35.67-.22.23.12.34.39.24.64l-2.57,5.67c-.08.18-.26.29-.45.29Z"/>
      <rect x="3.01" y="32" width="13.98" height="1"/>
    </g>
  </g>
</svg>