<?xml version="1.0" encoding="UTF-8"?>
<svg id="Layer_2" xmlns="http://www.w3.org/2000/svg" viewBox="0 0 27.83 42.83">
  <defs>
    <style>
      .cls-1 {
        fill: none;
      }
    </style>
  </defs>
  <g id="route-2--large">
    <g>
      <circle class="cls-1" cx="3.42" cy="39.42" r="2.42"/>
      <path class="cls-1" d="M24.47,20.03l1.07-7.19c-1.3-.54-2.72-.84-4.21-.84s-2.91.3-4.21.84l1.07,7.19c2.04.62,4.24.62,6.28,0Z"/>
      <circle class="cls-1" cx="3.42" cy="3.42" r="2.42"/>
      <path class="cls-1" d="M25.37,20.78l-.29.1c-1.21.41-2.47.62-3.75.62s-2.54-.21-3.75-.62l-.29-.1-1.11-7.5c-.12.06-.23.13-.35.2v12.02c1.62.94,3.5,1.49,5.5,1.49s3.88-.55,5.5-1.49v-12.02c-.12-.07-.23-.14-.35-.2l-1.11,7.5ZM18.83,25c-.55,0-1-.45-1-1s.45-1,1-1,1,.45,1,1-.45,1-1,1ZM23.83,25c-.55,0-1-.45-1-1s.45-1,1-1,1,.45,1,1-.45,1-1,1Z"/>
      <path d="M6.83,3.42c0-1.89-1.53-3.42-3.42-3.42S0,1.53,0,3.42c0,1.69,1.23,3.08,2.83,3.36v29.28c-1.61.28-2.83,1.67-2.83,3.36,0,1.89,1.53,3.42,3.42,3.42s3.42-1.53,3.42-3.42c0-1.74-1.31-3.17-3-3.37v-5.04h2v-1h-2v-5h2v-1h-2v-5h2v-1h-2v-5h2v-1h-2v-5.21c1.69-.21,3-1.63,3-3.37ZM1,3.42C1,2.08,2.09,1,3.42,1s2.42,1.08,2.42,2.42-1.08,2.42-2.42,2.42c-1.33,0-2.42-1.08-2.42-2.42ZM5.83,39.42c0,1.33-1.08,2.42-2.42,2.42s-2.42-1.08-2.42-2.42,1.08-2.42,2.42-2.42,2.42,1.08,2.42,2.42Z"/>
      <circle cx="18.83" cy="24" r="1"/>
      <circle cx="23.83" cy="24" r="1"/>
      <path d="M21.33,11c-2.4,0-4.63.71-6.5,1.92v13.16c1.87,1.21,4.1,1.92,6.5,1.92s4.63-.71,6.5-1.92v-13.16c-1.87-1.21-4.1-1.92-6.5-1.92ZM21.33,12c1.49,0,2.91.3,4.21.84l-1.07,7.19c-2.04.62-4.24.62-6.28,0l-1.07-7.19c1.3-.54,2.72-.84,4.21-.84ZM26.83,25.51c-1.62.94-3.49,1.49-5.5,1.49s-3.88-.55-5.5-1.49v-12.02c.12-.07.23-.14.35-.2l1.11,7.5.29.1c1.21.41,2.47.62,3.75.62s2.54-.21,3.75-.62l.29-.1,1.11-7.5c.12.06.23.13.35.2v12.02Z"/>
      <path d="M25.39,30h-1.05c0,.08.01.15.05.22l.89,1.78h-7.88l.89-1.78c.04-.07.05-.15.05-.22h-1.05l-1.89,3.78c-.12.25-.02.55.22.67.07.04.15.05.22.05.18,0,.36-.1.45-.28l.61-1.22h8.88l.61,1.22c.09.17.26.28.45.28.08,0,.15-.02.22-.05.25-.12.35-.42.22-.67l-1.89-3.78Z"/>
    </g>
  </g>
</svg>