<?xml version="1.0" encoding="UTF-8"?>
<svg id="Layer_1" data-name="Layer 1" xmlns="http://www.w3.org/2000/svg" viewBox="0 0 51.13 20">
  <defs>
    <style>
      .cls-1 {
        fill: #ffc700;
      }
    </style>
  </defs>
  <path class="cls-1" d="M22.36,9.6c-1.04-1.03-2.45-1.6-3.91-1.6H7.62l4.01-4h10.13c.42.02.81.2,1.1.5l5.91,5.9c1.04,1.03,2.45,1.6,3.91,1.6h10.83l-4.01,4h-10.12c-.42-.02-.81-.2-1.1-.5l-5.92-5.9ZM25.47,18.3c1.06,1.02,2.44,1.62,3.91,1.7h11.73l10.03-10L41.11,0h-5.61l8.02,8h-10.83c-.4-.03-.78-.17-1.1-.4l-5.92-5.9c-1.06-1.02-2.44-1.62-3.91-1.7h-11.73L0,10l10.03,10h5.61l-8.02-8h10.83c.4.03.78.17,1.1.4l5.92,5.9Z"/>
</svg>